<svg fill="none" height="256" viewBox="0 0 256 256" width="256" xmlns="http://www.w3.org/2000/svg"><path d="m0 0h256v256h-256z" fill="#fff"/><path d="m222.286 18h-188.6208c-8.6429 0-15.6652 7.1205-15.6652 15.8616v188.2764c0 8.741 7.0223 15.862 15.6652 15.862h188.6208c8.643 0 15.714-7.121 15.714-15.862v-188.2764c0-8.7411-7.071-15.8616-15.714-15.8616zm-137.7949 188.571h-32.6072v-104.991h32.6563v104.991zm-16.3036-119.3299c-10.4598 0-18.9062-8.4956-18.9062-18.9063s8.4464-18.9062 18.9062-18.9062c10.4107 0 18.9062 8.4955 18.9062 18.9062 0 10.4598-8.4464 18.9063-18.9062 18.9063zm138.5315 119.3299h-32.607v-51.071c0-12.179-.246-27.844-16.942-27.844-16.991 0-19.594 13.259-19.594 26.96v51.955h-32.607v-104.991h31.281v14.34h.442c4.37-8.25 15.027-16.9423 30.888-16.9423 33 0 39.139 21.7543 39.139 50.0403z" fill="currentColor"/></svg>