<svg fill="none" height="256" viewBox="0 0 256 256" width="256" xmlns="http://www.w3.org/2000/svg"><path d="m0 0h256v256h-256z" fill="#fff"/><path d="m214.429 18h-172.8576c-6.2515 0-12.247 2.4834-16.6675 6.9039s-6.9039 10.416-6.9039 16.6675v172.8576c0 6.251 2.4834 12.247 6.9039 16.667 4.4205 4.421 10.416 6.904 16.6675 6.904h67.3996v-74.795h-30.9375v-35.205h30.9375v-26.832c0-30.5202 18.17-47.3787 45.999-47.3787 13.327 0 27.264 2.3768 27.264 2.3768v29.9553h-15.356c-15.13 0-19.849 9.3893-19.849 19.0196v22.859h33.776l-5.402 35.205h-28.374v74.795h67.4c6.251 0 12.247-2.483 16.667-6.904 4.421-4.42 6.904-10.416 6.904-16.667v-172.8576c0-6.2515-2.483-12.247-6.904-16.6675-4.42-4.4205-10.416-6.9039-16.667-6.9039z" fill="currentColor"/></svg>